<?xml version="1.0" standalone="no"?><!DOCTYPE svg PUBLIC "-//W3C//DTD SVG 1.1//EN" "http://www.w3.org/Graphics/SVG/1.1/DTD/svg11.dtd"><svg t="1650892803970" class="icon" viewBox="0 0 1024 1024" version="1.1" xmlns="http://www.w3.org/2000/svg" p-id="2972" xmlns:xlink="http://www.w3.org/1999/xlink" width="400" height="400"><defs><style type="text/css">@font-face { font-family: feedback-iconfont; src: url("//at.alicdn.com/t/font_1031158_u69w8yhxdu.woff2?t=1630033759944") format("woff2"), url("//at.alicdn.com/t/font_1031158_u69w8yhxdu.woff?t=1630033759944") format("woff"), url("//at.alicdn.com/t/font_1031158_u69w8yhxdu.ttf?t=1630033759944") format("truetype"); }
</style></defs><path d="M347.733333 977.066667a249.6 34.133333 0 1 0 499.2 0 249.6 34.133333 0 1 0-499.2 0Z" fill="#45413C" p-id="2973"></path><path d="M597.333333 586.666667m-288 0a288 288 0 1 0 576 0 288 288 0 1 0-576 0Z" fill="#FFE500" p-id="2974"></path><path d="M597.333333 298.666667c-157.866667 0-288 128-288 288S437.333333 874.666667 597.333333 874.666667c157.866667 0 288-128 288-288S757.333333 298.666667 597.333333 298.666667z m0 531.2c-145.066667 0-262.4-117.333333-262.4-262.4 0-145.066667 117.333333-262.4 262.4-262.4 145.066667 0 262.4 117.333333 262.4 262.4 0 145.066667-117.333333 262.4-262.4 262.4z" fill="#EBCB00" p-id="2975"></path><path d="M597.333333 725.333333m-115.2 0a115.2 115.2 0 1 0 230.4 0 115.2 115.2 0 1 0-230.4 0Z" fill="#FFB0CA" p-id="2976"></path><path d="M597.333333 733.866667c-40.533333 0-76.8 21.333333-98.133333 53.333333 21.333333 32 55.466667 53.333333 98.133333 53.333333s76.8-21.333333 98.133334-53.333333c-21.333333-32-55.466667-53.333333-98.133334-53.333333z" fill="#FF866E" p-id="2977"></path><path d="M631.466667 379.733333l-125.866667-23.466666c-8.533333-2.133333-14.933333-6.4-14.933333-14.933334-2.133333-8.533333 2.133333-14.933333 8.533333-21.333333l115.2-85.333333-81.066667-14.933334c-10.666667-2.133333-17.066667-12.8-14.933333-23.466666 2.133333-10.666667 12.8-17.066667 23.466667-14.933334l125.866666 23.466667c8.533333 2.133333 14.933333 6.4 14.933334 14.933333 2.133333 8.533333-2.133333 14.933333-8.533334 21.333334l-115.2 85.333333 81.066667 14.933333c10.666667 2.133333 17.066667 12.8 14.933333 23.466667-2.133333 10.666667-12.8 17.066667-23.466666 14.933333zM401.066667 507.733333L298.666667 548.266667c-6.4 2.133333-12.8 2.133333-19.2-4.266667-4.266667-4.266667-6.4-12.8-4.266667-19.2l44.8-115.2-66.133333 27.733333c-8.533333 4.266667-19.2 0-21.333334-8.533333-4.266667-8.533333 0-19.2 8.533334-21.333333l102.4-40.533334c6.4-2.133333 12.8-2.133333 19.2 4.266667 4.266667 4.266667 6.4 12.8 4.266666 19.2l-44.8 115.2 66.133334-27.733333c8.533333-4.266667 19.2 0 21.333333 8.533333 4.266667 8.533333 0 17.066667-8.533333 21.333333zM460.8 305.066667l-241.066667 46.933333c-12.8 2.133333-25.6-2.133333-32-12.8-6.4-10.666667-6.4-23.466667 0-34.133333L341.333333 89.6 174.933333 121.6c-17.066667 4.266667-32-8.533333-36.266666-23.466667-2.133333-17.066667 8.533333-34.133333 25.6-36.266666L405.333333 14.933333c12.8-2.133333 25.6 2.133333 32 12.8 6.4 10.666667 6.4 23.466667 0 34.133334L283.733333 277.333333l166.4-32c17.066667-4.266667 32 8.533333 36.266667 23.466667 2.133333 17.066667-8.533333 34.133333-25.6 36.266667z" fill="#DABFF5" p-id="2978"></path><path d="M174.933333 93.866667l241.066667-46.933334c8.533333-2.133333 17.066667 0 23.466667 4.266667 2.133333-8.533333 2.133333-17.066667-4.266667-25.6-6.4-10.666667-19.2-14.933333-32-12.8L164.266667 61.866667c-17.066667 2.133333-27.733333 19.2-25.6 36.266666 2.133333 8.533333 6.4 14.933333 12.8 19.2 4.266667-10.666667 12.8-21.333333 23.466666-23.466666z" fill="#EDDBFF" p-id="2979"></path><path d="M755.2 672a36.266667 21.333333 0 1 0 72.533333 0 36.266667 21.333333 0 1 0-72.533333 0Z" fill="#FFAA54" p-id="2980"></path><path d="M369.066667 672a36.266667 21.333333 0 1 0 72.533333 0 36.266667 21.333333 0 1 0-72.533333 0Z" fill="#FFAA54" p-id="2981"></path><path d="M633.6 842.666667c0-14.933333 8.533333-27.733333 21.333333-34.133334 4.266667-2.133333 10.666667-6.4 12.8-10.666666l12.8-14.933334c2.133333-4.266667 6.4-6.4 10.666667-6.4 8.533333 0 14.933333 6.4 14.933333 14.933334V832c0 14.933333-10.666667 25.6-25.6 25.6h-10.666666v115.2c0 10.666667-8.533333 17.066667-17.066667 17.066667s-17.066667-8.533333-17.066667-17.066667v-130.133333z" fill="#4AEFF7" p-id="2982"></path></svg>