<?xml version="1.0" standalone="no"?><!DOCTYPE svg PUBLIC "-//W3C//DTD SVG 1.1//EN" "http://www.w3.org/Graphics/SVG/1.1/DTD/svg11.dtd"><svg t="1651027571356" class="icon" viewBox="0 0 1024 1024" version="1.1" xmlns="http://www.w3.org/2000/svg" p-id="2328" xmlns:xlink="http://www.w3.org/1999/xlink" width="128" height="128"><defs><style type="text/css"></style></defs><path d="M512 430.933333m-328.533333 0a328.533333 328.533333 0 1 0 657.066666 0 328.533333 328.533333 0 1 0-657.066666 0Z" fill="#FFE500" p-id="2329"></path><path d="M512 102.4c-181.333333 0-328.533333 147.2-328.533333 328.533333S330.666667 759.466667 512 759.466667s328.533333-147.2 328.533333-328.533334S693.333333 102.4 512 102.4z m0 605.866667c-166.4 0-298.666667-134.4-298.666667-298.666667 0-166.4 134.4-298.666667 298.666667-298.666667s298.666667 134.4 298.666667 298.666667c0 166.4-132.266667 298.666667-298.666667 298.666667z" fill="#EBCB00" p-id="2330"></path><path d="M413.866667 168.533333a98.133333 25.6 0 1 0 196.266666 0 98.133333 25.6 0 1 0-196.266666 0Z" fill="#FFF48C" p-id="2331"></path><path d="M249.6 889.6a262.4 32 0 1 0 524.8 0 262.4 32 0 1 0-524.8 0Z" fill="#45413C" opacity=".15" p-id="2332"></path><path d="M667.733333 512a40.533333 25.6 0 1 0 81.066667 0 40.533333 25.6 0 1 0-81.066667 0Z" fill="#FFAA54" p-id="2333"></path><path d="M275.2 512a40.533333 25.6 0 1 0 81.066667 0 40.533333 25.6 0 1 0-81.066667 0Z" fill="#FFAA54" p-id="2334"></path><path d="M411.733333 561.066667c-4.266667 0-8.533333 2.133333-12.8 6.4-2.133333 4.266667-4.266667 8.533333-4.266666 12.8 8.533333 55.466667 57.6 96 115.2 96s106.666667-40.533333 115.2-96c0-4.266667 0-8.533333-4.266667-12.8-2.133333-4.266667-6.4-6.4-12.8-6.4h-196.266667z" fill="#FFB0CA" p-id="2335"></path><path d="M603.733333 633.6c-23.466667-12.8-55.466667-21.333333-91.733333-21.333333-36.266667 0-68.266667 8.533333-91.733333 21.333333 21.333333 27.733333 53.333333 42.666667 91.733333 42.666667s70.4-17.066667 91.733333-42.666667z" fill="#FF87AF" p-id="2336"></path><path d="M953.6 590.933333c-70.4 70.4-121.6-70.4-192-85.333333 98.133333-70.4 262.4 14.933333 192 85.333333z" fill="#00B8F0" p-id="2337"></path><path d="M763.733333 507.733333c2.133333 0 4.266667 0 4.266667 2.133334 96-34.133333 215.466667 38.4 157.866667 100.266666 8.533333-2.133333 19.2-8.533333 27.733333-17.066666 70.4-72.533333-93.866667-157.866667-189.866667-85.333334z" fill="#4ACFFF" p-id="2338"></path><path d="M885.333333 339.2c23.466667 61.866667-76.8 53.333333-102.4 89.6-17.066667-76.8 81.066667-149.333333 102.4-89.6z" fill="#00B8F0" p-id="2339"></path><path d="M782.933333 430.933333l2.133334-2.133333c6.4-66.133333 83.2-117.333333 104.533333-66.133333 0-6.4 0-12.8-2.133333-21.333334-23.466667-61.866667-121.6 10.666667-104.533334 89.6z" fill="#4ACFFF" p-id="2340"></path><path d="M1002.666667 433.066667c-17.066667 42.666667-64-8.533333-96-2.133334 27.733333-49.066667 113.066667-40.533333 96 2.133334z" fill="#00B8F0" p-id="2341"></path><path d="M904.533333 430.933333h2.133334c34.133333-32 100.266667-21.333333 85.333333 14.933334 4.266667-2.133333 6.4-6.4 8.533333-12.8 19.2-42.666667-66.133333-51.2-96-2.133334z" fill="#4ACFFF" p-id="2342"></path><path d="M70.4 590.933333c70.4 70.4 121.6-70.4 192-85.333333-98.133333-70.4-262.4 14.933333-192 85.333333z" fill="#00B8F0" p-id="2343"></path><path d="M260.266667 507.733333c-2.133333 0-4.266667 0-4.266667 2.133334-96-34.133333-215.466667 38.4-157.866667 100.266666-8.533333-2.133333-19.2-8.533333-27.733333-17.066666-70.4-72.533333 93.866667-157.866667 189.866667-85.333334z" fill="#4ACFFF" p-id="2344"></path><path d="M138.666667 339.2c-23.466667 61.866667 76.8 53.333333 102.4 89.6 17.066667-76.8-81.066667-149.333333-102.4-89.6z" fill="#00B8F0" p-id="2345"></path><path d="M241.066667 430.933333l-2.133334-2.133333c-6.4-66.133333-83.2-117.333333-104.533333-66.133333 0-6.4 0-12.8 2.133333-21.333334 23.466667-61.866667 121.6 10.666667 104.533334 89.6z" fill="#4ACFFF" p-id="2346"></path><path d="M21.333333 433.066667c17.066667 42.666667 64-8.533333 96-2.133334-27.733333-49.066667-113.066667-40.533333-96 2.133334z" fill="#00B8F0" p-id="2347"></path><path d="M119.466667 430.933333h-2.133334c-34.133333-32-100.266667-21.333333-85.333333 14.933334-4.266667-2.133333-6.4-6.4-8.533333-12.8-19.2-42.666667 66.133333-51.2 96-2.133334z" fill="#4ACFFF" p-id="2348"></path></svg>